<?xml version="1.0" encoding="UTF-8"?>
<svg width="64px" height="64px" viewBox="0 0 64 64" version="1.1" xmlns="http://www.w3.org/2000/svg" xmlns:xlink="http://www.w3.org/1999/xlink">
    <!-- Generator: Sketch 40.3 (33839) - http://www.bohemiancoding.com/sketch -->
    <title>256</title>
    <desc>Created with Sketch.</desc>
    <defs>
        <polygon id="path-1" points="16 5 21 5 16 0"></polygon>
    </defs>
    <g id="Page-1" stroke="none" stroke-width="1" fill="none" fill-rule="evenodd">
        <g id="256">
            <g id="PDF" transform="translate(20.000000, 20.000000)">
                <path d="M21,20.8695652 L21,24 L3,24 L3,20.8695652 M3,10.9565217 L3,0 L16.2352941,0 L21,4.69565217 L21,10.9565217" id="Rectangle-1948" stroke="#323232" stroke-width="2" stroke-linecap="round" stroke-linejoin="round" fill="#323232"></path>
                <rect id="Rectangle-1949" stroke="#B1B188" stroke-width="2" stroke-linecap="round" stroke-linejoin="round" fill="#B1B188" x="0" y="11" width="24" height="10"></rect>
                <g id="Path-4339">
                    <use fill="#D8D8D8" xlink:href="#path-1"></use>
                    <use stroke="#B1B188" stroke-width="2" stroke-linecap="round" stroke-linejoin="round" fill="#323232" xlink:href="#path-1"></use>
                </g>
                <path d="M9,14.7711864 C9,15.0762727 8.95833375,15.3432192 8.875,15.5720339 C8.79166625,15.8008486 8.68181886,15.9915247 8.54545455,16.1440678 C8.40909023,16.2966109 8.25252614,16.4096042 8.07575758,16.4830508 C7.89898902,16.5564975 7.71717265,16.5932203 7.53030303,16.5932203 L6.89393939,16.5932203 L6.89393939,19 L6,19 L6,13 L7.48484848,13 C7.65656652,13 7.83333242,13.0282483 8.01515152,13.0847458 C8.19697061,13.1412432 8.35984777,13.2386999 8.50378788,13.3771186 C8.64772799,13.5155374 8.76641367,13.697739 8.85984848,13.9237288 C8.9532833,14.1497186 9,14.4322017 9,14.7711864 L9,14.7711864 Z M8,14.9688889 C8,14.6311094 7.9451225,14.385186 7.83536585,14.2311111 C7.72560921,14.0770363 7.58536671,14 7.41463415,14 L7,14 L7,16 L7.41463415,16 C7.58536671,16 7.72560921,15.9125935 7.83536585,15.7377778 C7.9451225,15.5629621 8,15.3066684 8,14.9688889 L8,14.9688889 Z M14,16.0084746 C14,16.9576319 13.7934087,17.6935002 13.3802198,18.2161017 C12.9670309,18.7387032 12.3589784,19 11.556044,19 L10,19 L10,13 L11.5648352,13 C12.3619087,13 12.9670309,13.2641217 13.3802198,13.7923729 C13.7934087,14.3206241 14,15.0593173 14,16.0084746 L14,16.0084746 Z M13,16.0080321 C13,15.670681 12.9641748,15.3761726 12.8925234,15.124498 C12.8208719,14.8728234 12.7196268,14.6639901 12.588785,14.497992 C12.4579433,14.3319938 12.3021816,14.2074971 12.1214953,14.124498 C11.9408091,14.0414989 11.7445493,14 11.5327103,14 L11,14 L11,18 L11.5327103,18 C11.7445493,18 11.9408091,17.9585011 12.1214953,17.875502 C12.3021816,17.7925029 12.4579433,17.6680062 12.588785,17.502008 C12.7196268,17.3360099 12.8208719,17.1285153 12.8925234,16.8795181 C12.9641748,16.6305208 13,16.3400284 13,16.0080321 L13,16.0080321 Z M16.1356467,13.9152542 L16.1356467,15.5508475 L17.8580442,15.5508475 L17.8580442,16.4237288 L16.1451104,16.4237288 L16.1451104,19 L15,19 L15,13 L18,13 L18,13.9152542 L16.1356467,13.9152542 Z" fill="#1D2224"></path>
            </g>
        </g>
    </g>
</svg>