<?xml version="1.0" encoding="UTF-8"?>
<svg width="64px" height="64px" viewBox="0 0 64 64" version="1.1" xmlns="http://www.w3.org/2000/svg" xmlns:xlink="http://www.w3.org/1999/xlink">
    <!-- Generator: Sketch 40.3 (33839) - http://www.bohemiancoding.com/sketch -->
    <title>256</title>
    <desc>Created with Sketch.</desc>
    <defs></defs>
    <g id="Page-1" stroke="none" stroke-width="1" fill="none" fill-rule="evenodd">
        <g id="256">
            <g id="Group-6" transform="translate(21.000000, 22.000000)">
                <g id="Github">
                    <path d="M1.48554098,15.6677575 C2.82862295,17.7581003 4.83567213,18.676786 7.14567213,18.8720622 C9.11232787,19.0384908 11.0977377,18.9933701 13.0748525,18.9970685 C14.4860984,18.9996574 15.882918,18.8461733 17.2216721,18.3261765 C19.2968852,17.5202924 20.6702623,16.041667 21.3237705,13.8625622 C21.7042623,12.5947464 21.8568197,11.2958639 21.8142623,9.97183212 C21.7691803,8.57605118 21.4016721,7.28678453 20.5772131,6.16061787 C20.3218689,5.81185756 20.1328852,5.51487502 20.1826557,5.00449408 C20.2519016,4.29033059 20.1465902,3.54953854 20.0481311,2.82982743 C19.9240656,1.92186712 19.6892787,1.03683697 19.317082,0.178805237 C18.3970492,0.374451267 17.4856721,0.531633805 16.6727541,0.997263959 C15.8104262,1.49137189 14.9722623,2.02949093 14.1182295,2.53839251 C14.0212131,2.59608775 13.8827213,2.6278941 13.7734426,2.60940204 C11.9434754,2.29244807 10.1149508,2.30428299 8.28390164,2.60089569 C8.14504918,2.62345601 7.97085246,2.57722585 7.84642623,2.50362744 C7.39380328,2.23475283 6.96462295,1.92408617 6.50983607,1.65964967 C5.32255738,0.968046499 4.09993443,0.36372587 2.69085246,0.185092539 C2.65081967,0.272005236 2.61763934,0.33450841 2.59311475,0.399970314 C2.16898361,1.53390364 1.91652459,2.7085195 1.83645902,3.91900996 C1.8072459,4.35875123 1.77442623,4.80884805 1.83645902,5.24008296 C1.87180328,5.48565756 1.83609836,5.6321147 1.69472131,5.80741946 C1.20062295,6.41876708 0.815081967,7.09261786 0.564065574,7.85079246 C0.0854754098,9.29539244 0.115770492,10.7677305 0.332163934,12.2445067 C0.508163934,13.4546273 0.814360656,14.6233257 1.48554098,15.6677575 Z M4.25068852,9.71232164 C4.83711475,9.17778226 5.55590164,8.96389339 6.30101639,8.94597791 C7.43780328,8.91892188 8.5767541,9.01252112 9.71498361,9.0172742 C10.9697049,9.02275853 12.2247869,8.99058379 13.4795082,8.96535588 C14.200459,8.950731 14.9210492,8.90649073 15.642,8.89405958 C17.5899016,8.8611536 18.7609508,10.6702513 18.942,11.9799093 C19.0602951,12.8354648 18.9542623,13.6701799 18.6819672,14.4917325 C18.2975082,15.6514855 17.4874754,16.3556735 16.3827869,16.7318986 C15.1511475,17.1516327 13.8737049,17.3337124 12.5778689,17.3746621 C12.043377,17.3914807 11.5081639,17.3775871 10.9729508,17.3775871 C9.31934426,17.4013525 7.67222951,17.3267656 6.06370492,16.8748568 C4.04259016,16.3074114 3.29386885,15.1864144 3.09839344,13.1290593 C2.97540984,11.8347574 3.23760656,10.6358828 4.25068852,9.71232164 Z" id="Path" fill="#323232"></path>
                    <ellipse id="Oval-1945" fill="#2F4556" cx="7.33333333" cy="12.9361702" rx="1.62962963" ry="2.0212766"></ellipse>
                    <ellipse id="Oval-1947" fill="#2F4556" cx="15.0740741" cy="12.9361702" rx="1.62962963" ry="2.0212766"></ellipse>
                </g>
            </g>
        </g>
    </g>
</svg>