<?xml version="1.0" encoding="UTF-8"?>
<svg width="64px" height="64px" viewBox="0 0 64 64" version="1.1" xmlns="http://www.w3.org/2000/svg" xmlns:xlink="http://www.w3.org/1999/xlink">
    <!-- Generator: Sketch 40.3 (33839) - http://www.bohemiancoding.com/sketch -->
    <title>256</title>
    <desc>Created with Sketch.</desc>
    <defs></defs>
    <g id="Page-1" stroke="none" stroke-width="1" fill="none" fill-rule="evenodd">
        <g id="256" fill="#323232">
            <path d="M39.6322676,34.7962291 C39.6322676,32.7285298 38.0247546,31.0853702 36.2347977,31.0853702 C34.8671194,31.0853702 33.657977,31.0853702 32.8546802,32.816194 C32.7063767,33.1357362 32.534703,34.0661947 32.534703,34.5263892 L32.534703,43.4625414 L28.1894981,43.462541 L28.189498,32.1120384 L28.189498,26.5134873 L32.7016331,26.5134873 L32.9242059,28.7214453 L33.0216107,28.7214453 C33.6730771,27.6722943 35.1536554,26.5134873 37.8248394,26.5134873 C41.0810254,26.5134873 44,29.0908476 44,33.8152027 L44,43.4625414 L39.6322676,43.4625414 L39.6322676,34.7962291 Z M22.3389393,24.4992023 C20.9173434,24.4992023 20,23.4933022 20,22.2503825 C20,20.9772495 20.947036,20 22.3972825,20 C23.847529,20 24.7362218,20.9767285 24.7659143,22.2503825 C24.7664352,23.4933022 23.84805,24.4992023 22.3389393,24.4992023 L22.3389393,24.4992023 Z M20.5234393,43.4625414 L20.5234392,26.5134875 L24.338764,26.5134877 L24.3387642,43.4625415 L20.5234393,43.4625414 Z" id="Shape"></path>
        </g>
    </g>
</svg>