<?xml version="1.0" encoding="UTF-8"?>
<svg width="64px" height="64px" viewBox="0 0 64 64" version="1.1" xmlns="http://www.w3.org/2000/svg" xmlns:xlink="http://www.w3.org/1999/xlink">
    <!-- Generator: Sketch 40.3 (33839) - http://www.bohemiancoding.com/sketch -->
    <title>256</title>
    <desc>Created with Sketch.</desc>
    <defs></defs>
    <g id="Page-1" stroke="none" stroke-width="1" fill="none" fill-rule="evenodd">
        <g id="256" fill="#323232">
            <path d="M41.3024426,25.0718268 C41.3024426,25.0718268 43.2274788,24.9174549 44,24.332345 C44,24.332345 43.8148456,25.0059152 41.4984214,27.1370564 C41.4984214,27.1370564 42.2783488,38.6363153 30.394284,41.4525902 C30.394284,41.4525902 24.3673653,42.7592584 20,39.426098 C20,39.426098 24.5718898,40.2517273 27.1441119,37.3643374 C27.1441119,37.3643374 23.8261448,37.3984495 22.7767465,33.9629527 C22.7767465,33.9629527 24.0295298,34.2375843 24.7741354,33.8941502 C24.7741354,33.8941502 21.0157856,33.1032112 21.0835806,28.9455778 C21.0835806,28.9455778 22.0993662,29.7018265 23.0131744,29.5642216 C23.0131744,29.5642216 19.6279821,26.6427195 21.7267786,23.0013936 C21.7267786,23.0013936 26.2627768,28.444881 31.8846346,28.121683 C31.7866451,27.7319952 31.7336625,27.3238059 31.7336625,26.9017405 C31.7336625,24.1953183 33.8968358,22 36.5647684,22 C37.9126926,22 39.1318632,22.5608266 40.0086405,23.4645092 C40.6512688,23.4754944 41.9729864,23.3592819 43.292995,22.4000949 C43.292995,22.4006731 43.3687659,23.4488985 41.3024426,25.0718268 L41.3024426,25.0718268 Z" id="Shape"></path>
        </g>
    </g>
</svg>