<?xml version="1.0" standalone="no"?>
<!DOCTYPE svg PUBLIC "-//W3C//DTD SVG 20010904//EN"
 "http://www.w3.org/TR/2001/REC-SVG-20010904/DTD/svg10.dtd">
<svg version="1.0" xmlns="http://www.w3.org/2000/svg"
 width="700.000000pt" height="700.000000pt" viewBox="0 0 700.000000 700.000000"
 preserveAspectRatio="xMidYMid meet">
<metadata>
Created by potrace 1.11, written by Peter Selinger 2001-2013
</metadata>
<g transform="translate(0.000000,700.000000) scale(0.100000,-0.100000)"
fill="#000000" stroke="none">
<path d="M2386 4410 c-3 -8 -4 -325 -4 -705 0 -379 -3 -705 -6 -724 -24 -124
-91 -181 -226 -189 l-76 -4 1 -147 0 -146 85 1 c202 3 332 39 439 124 75 59
142 175 156 270 2 14 7 39 11 55 5 26 9 1283 4 1310 -1 6 -2 14 -1 19 2 10 3
109 2 136 -1 23 -379 23 -385 0z"/>
<path d="M3222 4420 c-11 -7 -8 -1252 2 -1269 6 -8 5 -12 0 -8 -6 3 -9 -43 -9
-114 l0 -120 405 4 c419 4 446 6 528 30 209 63 306 184 311 389 2 88 -25 202
-54 232 -8 8 -15 19 -15 25 0 18 -101 98 -141 111 -21 7 -39 16 -39 20 0 4 15
15 33 23 42 20 79 56 71 68 -3 5 0 8 8 7 7 -2 25 22 42 55 22 45 29 74 32 138
3 44 1 78 -3 76 -5 -3 -9 14 -9 37 -4 131 -143 250 -329 280 -16 3 -50 8 -75
12 -53 8 -747 12 -758 4z m673 -271 c80 -22 124 -96 110 -186 -8 -53 -59 -108
-110 -117 -45 -9 -275 -10 -283 -2 -3 4 -6 76 -7 161 l0 155 125 0 c69 0 143
-5 165 -11z m-34 -580 c69 -2 125 -22 165 -60 47 -44 57 -177 18 -246 -16 -28
-61 -63 -89 -70 -57 -13 -88 -15 -207 -17 -89 -1 -139 2 -141 9 -1 5 -3 30 -2
55 0 25 -4 48 -10 52 -6 5 -5 8 3 8 6 0 12 8 12 18 0 10 -6 24 -12 31 -7 8 -8
11 -2 8 7 -4 10 28 10 106 l-1 112 95 -2 c52 -1 125 -3 161 -4z"/>
<path d="M1612 2061 c-6 -5 -8 -66 -3 -99 2 -13 4020 -11 4024 2 2 6 3 31 2
56 l-1 45 -2007 1 c-1104 0 -2011 -2 -2015 -5z"/>
</g>
</svg>
